<?xml version="1.0" encoding="UTF-8"?>
<svg class="icon" width="64px" height="65px" viewBox="0 0 64 65" version="1.1" xmlns="http://www.w3.org/2000/svg" xmlns:xlink="http://www.w3.org/1999/xlink">
    <title>full-screen svg</title>
    <g id="Homepage" stroke="none" stroke-width="1" fill="none" fill-rule="evenodd">
        <g id="EPK-v.5.2-(matt's-colors)" transform="translate(-302.000000, -4139.000000)" fill="currentColor" fill-rule="nonzero">
            <g id="Mosaic" transform="translate(116.000000, 3827.805558)">
                <g id="Mosaic-Grid" transform="translate(0.000000, 118.000000)">
                    <g id="1" transform="translate(0.000000, 1.000000)">
                        <g id="full-screen-svg" transform="translate(186.000000, 193.000000)">
                            <path d="M15.7480315,3.93700787 L15.7480315,0 L1.96850394,0 C0.881274606,0 0,0.881274606 0,1.96850394 L0,15.7480315 L3.93700787,15.7480315 L3.93700787,6.71259843 L22.2244094,25 L25,22.2244094 L6.71259843,3.93700787 L15.7480315,3.93700787 Z" id="Path"></path>
                            <path d="M62.0314961,0 L48.2519685,0 L48.2519685,3.93700787 L57.2874016,3.93700787 L39,22.2244094 L41.7755906,25 L60.0629921,6.71259843 L60.0629921,15.7480315 L64,15.7480315 L64,1.96850394 C64,0.881274606 63.1187254,0 62.0314961,0 Z" id="Path"></path>
                            <path d="M60.0629921,57.2874016 L41.7755906,39 L39,41.7755906 L57.2874016,60.0629921 L48.2519685,60.0629921 L48.2519685,64 L62.0314961,64 C63.1187254,64 64,63.1187254 64,62.0314961 L64,48.2519685 L60.0629921,48.2519685 L60.0629921,57.2874016 Z" id="Path"></path>
                            <path d="M22.2244094,39 L3.93700787,57.2926829 L3.93700787,48.2643588 L0,48.2643588 L0,62.0330448 C0,63.1194188 0.881274606,64 1.96850394,64 L15.7480315,64 L15.7480315,60.0660897 L6.71259843,60.0660897 L25,41.7930763 L22.2244094,39 Z" id="Path"></path>
                        </g>
                    </g>
                </g>
            </g>
        </g>
    </g>
</svg>