<svg height="41" viewBox="0 0 41 41" width="41" xmlns="http://www.w3.org/2000/svg"><g fill="#090d03" transform="translate(.075955)"><path d="m39.9138674 11.7624785c-.0937619-2.12578223-.4376575-3.58723846-.9302893-4.85360987-.5082079-1.34422222-1.2900662-2.5477026-2.3144227-3.54816048-1.0008398-1.01602805-2.2127202-1.80552576-3.5418793-2.3056021-1.2741848-.49244386-2.7285634-.8362082-4.855157-.92993436-2.142475-.10166385-2.8226307-.12517169-8.256546-.12517169-5.4339154 0-6.1140711.02350784-8.2486053.11723401-2.12659361.09372616-3.58860761.43779569-4.85515703.92993436-1.34504057.50801402-2.54898026 1.28957405-3.54981998 2.31353978-1.01641582 1.00045788-1.80590954 2.21187594-2.30648205 3.540528-.49263181 1.27400389-.83652735 2.72752244-.93028928 4.85330465-.10170265 2.1416577-.12521946 2.8215539-.12521946 8.2533961s.02351681 6.1117384.11727875 8.2454584c.09376193 2.1257822.43796279 3.5872384.93059459 4.8536099.50820791 1.3442222 1.29770163 2.5477026 2.31411745 3.5481604 1.00083972 1.0160281 2.21272012 1.8055258 3.54187927 2.3056021 1.27449013.4924439 2.72856342.8362082 4.85546234.9299344 2.1342289.0940314 2.8146899.117234 8.2486053.117234 5.4339153 0 6.114071-.0232026 8.2486053-.117234 2.1265936-.0937262 3.5886076-.4374905 4.855157-.9299344 2.6897758-1.0395358 4.8163694-3.1653181 5.856302-5.8537625.4923265-1.2740039.8365274-2.7278277.9302893-4.8536099.0937619-2.13372.1172787-2.8136162.1172787-8.2454584s-.0079407-6.1117384-.1017026-8.2454584zm-3.6041837 16.3346048c-.0861265 1.9539-.414446 3.0090061-.6880964 3.7124101-.6725203 1.7429399-2.0563484 3.1262402-3.7999535 3.7985039-.7036725.273546-1.7668167.6017402-3.7138271.6875286-2.1110175.0940314-2.7441395.117234-8.0842929.117234s-5.9812162-.0232026-8.0845983-.117234c-1.95464578-.0857884-3.01015451-.4139826-3.713827-.6875286-.86767955-.3205617-1.65747859-.8285757-2.29854135-1.4929018-.66457957-.6487558-1.17278748-1.4303159-1.49347152-2.2976644-.27365041-.703404-.60196985-1.7664478-.68779107-3.7124102-.09406725-2.1102121-.11727875-2.7433978-.11727875-8.0815138 0-5.3381161.0232115-5.9789343.11727875-8.0812087.08582122-1.95390011.41414066-3.00900616.68779107-3.71241019.32068404-.86765372.82889195-1.65684624 1.50141223-2.29796962.64869816-.66432603 1.43055648-1.17234006 2.29854135-1.49259655.70367249-.27354601 1.76712189-.60174019 3.71382699-.68783387 2.1110175-.09372617 2.7444449-.11723401 8.084293-.11723401 5.3480941 0 5.9812161.02350784 8.0845982.11723401 1.9546458.08609368 3.0101546.41428786 3.7138271.68783387.8676795.32025649 1.6574785.82827052 2.2985413 1.49259655.6645796.64875586 1.1727875 1.4303159 1.4934715 2.29796962.2736504.70340403.6019699 1.76614256.6880964 3.71241019.093762 2.1102121.1172788 2.7430926.1172788 8.0812087 0 5.338116-.0235168 5.9633641-.1172788 8.0735762z"/><path d="m20.007785 9.80586669c-5.6311751 0-10.20004724 4.56769761-10.20004724 10.19810141 0 5.6304037 4.56887214 10.1981013 10.20004724 10.1981013 5.6314781 0 10.2000473-4.5676976 10.2000473-10.1981013 0-5.6304038-4.5685692-10.19810141-10.2000473-10.19810141zm0 16.81335621c-3.6532192 0-6.6165171-2.9624297-6.6165171-6.6152548 0-3.6528252 2.9632979-6.6152549 6.6165171-6.6152549 3.6535221 0 6.6165171 2.9624297 6.6165171 6.6152549 0 3.6528251-2.962995 6.6152548-6.6165171 6.6152548z"/><path d="m32.9539989 9.41363202c0 1.29962978-1.0539122 2.35340798-2.3540068 2.35340798-1.2997952 0-2.3537074-1.0537782-2.3537074-2.35340798 0-1.29992924 1.0539122-2.353408 2.3537074-2.353408 1.3000946 0 2.3540068 1.05347876 2.3540068 2.353408z"/></g></svg>