<svg height="36" viewBox="0 0 51 36" width="51" xmlns="http://www.w3.org/2000/svg"><path d="m49.1615441 5.46008507c-.5784288-2.13506052-2.2738869-3.8181052-4.4239998-4.39301106-3.9279848-1.06707401-19.6402304-1.06707401-19.6402304-1.06707401s-15.71163296 0-19.63961776 1.02661762c-2.10875282.57429753-3.84557098 2.29871109-4.42399976 4.43346745-1.03369638 3.89962624-1.03369638 11.98694003-1.03369638 11.98694003s0 8.1280743 1.03369638 11.9869401c.57904148 2.1347564 2.27388682 3.817801 4.42430611 4.3927069 3.9690385 1.0673782 19.63992411 1.0673782 19.63992411 1.0673782s15.7116329 0 19.6396177-1.0266176c2.1504193-.5746018 3.845571-2.2576464 4.4246125-4.3924028 1.033601-3.8999305 1.033601-11.98694 1.033601-11.98694s.0411491-8.12837859-1.0342137-12.02800483zm-29.0666587 19.45828323v-14.94268632l13.065505 7.47134312z" fill="#090d03" transform="translate(0 .245042)"/></svg>