<svg height="33" viewBox="0 0 41 33" width="41" xmlns="http://www.w3.org/2000/svg"><path d="m40 3.79402158c-1.4875.64343056-3.0725 1.06991902-4.725 1.27700012 1.7-1.00089199 2.9975-2.57372225 3.6075-4.46950041-1.585.93186495-3.335 1.59008702-5.2 1.95740944-1.505-1.58022601-3.65-2.55893073-5.99-2.55893073-4.54 0-8.195 3.63378025-8.195 8.08848915 0 .64096531.055 1.25727811.19 1.84400789-6.8175-.32787841-12.85-3.54996171-16.9025-8.45827683-.7075 1.21043834-1.1225 2.5959095-1.1225 4.08738647 0 2.80052535 1.4625 5.28303332 3.6425 6.72027472-1.3175-.0246525-2.61-.4018359-3.705-.9959615v.0887491c0 3.9296104 2.8425 7.193603 6.57 7.9455046-.6675.1799633-1.395.2662471-2.15.2662471-.525 0-1.055-.029583-1.5525-.1380541 1.0625 3.2023613 4.0775 5.5566762 7.6625 5.633099-2.79 2.1521643-6.3325 3.4488864-10.1675 3.4488864-.6725 0-1.3175-.029583-1.9625-.1109363 3.6325 2.3099404 7.9375 3.6288498 12.58 3.6288498 15.09 0 23.34-12.326256 23.34-23.01065464 0-.35746142-.0125-.70259659-.03-1.0452665 1.6275-1.13894605 2.995-2.56139599 4.11-4.19832278z" fill="#090d03" transform="translate(.97145 .168929)"/></svg>