<svg height="40" viewBox="0 0 41 40" width="41" xmlns="http://www.w3.org/2000/svg"><path d="m40 20c0-11.046875-8.953125-20-20-20s-20 8.953125-20 20 8.953125 20 20 20c.1171875 0 .234375 0 .3515625-.0078125v-15.5625h-4.296875v-5.0078125h4.296875v-3.6875c0-4.2734375 2.609375-6.6015625 6.421875-6.6015625 1.828125 0 3.3984375.1328125 3.8515625.1953125v4.46875h-2.625c-2.0703125 0-2.4765625.984375-2.4765625 2.4296875v3.1875h4.9609375l-.6484375 5.0078125h-4.3125v14.8046875c8.359375-2.3984375 14.4765625-10.09375 14.4765625-19.2265625z" fill="#090d03" transform="translate(.851409)"/></svg>