<?xml version="1.0" encoding="UTF-8"?>
<svg width="147px" height="35px" viewBox="0 0 147 35" version="1.1" xmlns="http://www.w3.org/2000/svg" xmlns:xlink="http://www.w3.org/1999/xlink">
    <title>appleMusicLogo</title>
    <g id="Homepage" stroke="none" stroke-width="1" fill="none" fill-rule="evenodd">
        <g id="EPK-v.5.2-(matt's-colors)" transform="translate(-1212.000000, -3227.000000)" fill="#261919" fill-rule="nonzero">
            <g id="Music-CTA" transform="translate(1.000000, 3018.104169)">
                <g id="appleMusicLogo" transform="translate(1211.000000, 209.500000)">
                    <path d="M21.8223151,0 L22.6155677,0 C22.7575697,4.07750846 19.3446247,8.26042841 15.0013216,8.18855693 C14.9278723,4.27395716 17.9246045,0.752254791 21.8223151,0 Z M118.878246,2.09385569 C120.694892,0.910372041 123.348861,2.71674183 122.962028,4.79622322 C122.893475,6.27677565 121.439179,7.07215333 120.126884,7.38359639 C119.421771,7.08173619 118.613828,6.90445321 118.099683,6.30073281 C116.880424,5.10766629 117.30643,2.79819617 118.878246,2.09385569 L118.878246,2.09385569 Z M34.7102223,2.29988726 C36.6345945,2.30467869 38.5589666,2.30947012 40.4882354,2.28551297 C44.1117352,10.7519729 47.5981295,19.2759301 51.14818,27.7711387 C54.7961628,19.319053 58.2189011,10.7759301 61.8179178,2.30467869 C63.7471866,2.29988726 65.6715587,2.29988726 67.5959309,2.30947012 C67.620414,12.8602029 67.6008275,23.4157272 67.6057241,33.96646 C66.0877715,33.9616685 64.5698189,33.9568771 63.0469697,34 C62.9539339,26.2857948 63.120419,18.5715896 62.9637272,10.8573844 C62.6258603,11.4563134 62.3124765,12.0648253 62.0333691,12.6925028 C59.0758098,19.7886133 56.0643878,26.8655581 53.0921386,33.9568771 C51.7896374,33.9712514 50.4822395,33.9760428 49.1797382,33.8993799 C46.0654871,26.1180947 42.6476454,18.4518038 39.4942213,10.6896843 C39.2934598,18.4326381 39.4550483,26.1851747 39.4109787,33.93292 C37.8391633,33.9712514 36.2722445,33.96646 34.7004291,33.9712514 C34.7004291,23.4109357 34.6857392,12.8554115 34.7102223,2.29988726 L34.7102223,2.29988726 Z" id="Shape"></path>
                    <path d="M7.99706657,7.12340241 C10.5451515,6.6761881 12.779626,8.20255 15.2003067,8.61573714 C17.488683,8.13449565 19.6153538,6.81715783 22.0262342,7.02132088 C24.7115237,6.96298858 27.2008067,8.3386587 28.8962632,10.33654 C26.3187773,11.9941496 24.4518151,14.9350698 25.0104337,18.0655701 C25.1917397,20.953019 27.421314,23.1161752 29.8419947,24.433513 C28.5385513,27.6903999 26.7499917,31.0396462 23.7657922,33.0666937 C20.7668922,34.9527715 17.7679923,31.5403318 14.6465882,32.3229569 C13.0932364,32.6194794 11.6476883,33.2903009 10.1188373,33.6840439 L8.88399613,33.6840439 C7.86966232,33.2903009 6.89942998,32.741005 6.1350045,31.95838 C2.72449082,28.4341367 0.548818294,23.7675526 0,18.9162495 L0,16.31074 C0.269508984,11.9649835 3.49871662,7.71158646 7.99706657,7.12340241 Z M98.6794893,11.0462497 C102.163505,8.90739865 106.843161,8.81503917 110.464382,10.6913949 C112.708657,11.867763 114.066002,14.2545263 114.208107,16.7385102 C112.718457,16.7482322 111.233708,16.7482322 109.748958,16.7385102 C109.352045,15.8635257 109.111937,14.8524324 108.357312,14.191333 C107.019567,13.0052429 105.074202,12.8642731 103.388546,13.1851008 C101.962599,13.5010674 100.374946,14.6045201 100.551352,16.2329636 C100.409247,17.5114132 101.560785,18.3669536 102.633921,18.7558356 C105.30941,19.7134576 108.215207,19.8933155 110.846595,20.9870462 C112.282343,21.5752302 113.68869,22.5231301 114.266909,24.0154648 C115.482149,26.6404184 114.423714,29.9361935 112.130438,31.6229692 C110.552585,32.8139204 108.61212,33.4166875 106.676556,33.6840439 L103.128838,33.6840439 C100.894363,33.2805788 98.581486,32.5028148 97.0330344,30.7722898 C95.8422947,29.5764776 95.4159805,27.914007 95.0827694,26.3244518 C96.6802227,26.3098687 98.2776759,26.3438959 99.8751292,26.4751436 C100.419047,27.8751188 101.276576,29.3723146 102.874029,29.7368915 C104.936998,30.1743837 107.524284,30.2813263 109.141338,28.7014931 C110.327178,27.5542912 110.038068,25.400857 108.523917,24.6765643 C104.961499,23.0189547 100.438648,23.4467249 97.439748,20.6030252 C94.6221541,17.9732106 95.489483,13.0003818 98.6794893,11.0462497 Z M130.555052,10.9879174 C134.034168,8.92198172 138.59622,8.81503917 142.19294,10.6525067 C144.90273,12.0427599 146.671689,14.8718765 147,17.8516849 C145.476049,17.8759901 143.956999,17.8857121 142.433048,17.9002952 C141.89403,16.709344 141.477516,15.353118 140.365179,14.5461878 C138.806927,13.3309315 136.631254,13.2045449 134.774092,13.6955084 C132.422014,14.4441063 131.079369,16.8308697 130.672656,19.1204125 C130.314944,21.9398071 130.363945,25.0897514 132.172106,27.4522096 C134.004767,29.9507766 137.910197,30.3493806 140.365179,28.5605234 C141.467716,27.7778983 141.89893,26.4459774 142.428148,25.2696093 C143.952098,25.2793314 145.476049,25.2744704 147,25.2939145 C146.70109,29.9118884 142.467349,33.3486332 137.983699,33.6840439 L135.416014,33.6840439 C132.794426,33.3534942 130.172839,32.2840687 128.418581,30.2667432 C126.208607,27.7487322 125.40008,24.3071264 125.561785,21.0307954 C125.498083,17.1760024 127.169039,13.0781582 130.555052,10.9879174 L130.555052,10.9879174 Z M71.8657955,10.0837562 C73.4779493,10.0837562 75.090103,10.0837562 76.7022567,10.0740342 C76.8492616,15.3044972 76.5405514,20.5495434 76.859062,25.7702844 C77.0599687,29.8146573 82.5334511,31.0104695 85.3265442,28.7209267 C86.821094,27.5542806 87.4924164,25.6195926 87.4434148,23.7772641 C87.4630154,19.2127615 87.4140138,14.6433978 87.4630154,10.0788952 C89.0849695,10.0837562 90.7069236,10.0837562 92.3288776,10.0788952 C92.338678,17.9245898 92.3582786,25.7654234 92.3288776,33.606257 C90.7461249,33.615979 89.1682723,33.5722298 87.5953198,33.411816 C87.5953198,32.1430884 87.5904197,30.8743608 87.5953198,29.6056333 C86.3751792,32.0555899 83.9642988,33.800698 81.181006,34 L79.0837361,34 C76.9521651,33.6986164 74.8009934,32.7652996 73.5269509,30.9861644 C72.179406,29.2167512 71.8314944,26.9320694 71.8559952,24.7689132 C71.8657955,19.8738609 71.8559952,14.9788085 71.8657955,10.0837562 Z M117.706824,9.76293907 C119.250375,9.77266113 120.793926,9.77752215 122.332578,9.7289119 C122.464882,10.4143164 122.577586,11.104582 122.592286,11.8045696 C122.562885,18.9113884 122.597187,26.0133462 122.572686,33.120165 C120.945832,33.1493311 119.318977,33.1444701 117.692123,33.1444701 C117.697023,25.3522468 117.667622,17.5600234 117.706824,9.76293907 Z" id="Shape"></path>
                </g>
            </g>
        </g>
    </g>
</svg>