<?xml version="1.0" encoding="UTF-8"?>
<svg width="156px" height="48px" viewBox="0 0 156 48" version="1.1" xmlns="http://www.w3.org/2000/svg" xmlns:xlink="http://www.w3.org/1999/xlink">
    <title>SpotifyLogo</title>
    <g id="Homepage" stroke="none" stroke-width="1" fill="none" fill-rule="evenodd">
        <g id="EPK-v.5.2-(matt's-colors)" transform="translate(-1212.000000, -3294.000000)" fill="#261919" fill-rule="nonzero">
            <g id="Music-CTA" transform="translate(1.000000, 3018.104169)">
                <g id="Right-Content" transform="translate(1211.000000, 209.500000)">
                    <g id="SpotifyLogo" transform="translate(0.000000, 66.500000)">
                        <path d="M23.3941196,0 C10.4741784,0 0,10.5214917 0,23.5001403 C0,36.4793501 10.4741784,47 23.3941196,47 C36.3154575,47 46.7885185,36.4793501 46.7885185,23.5001403 C46.7885185,10.5223336 36.3154575,0.00112250199 23.3938402,0.00112250199 L23.3941196,0 Z M34.122512,33.8939474 C33.7034778,34.5842862 32.8039511,34.8031741 32.116735,34.3794296 C26.624035,31.0091173 19.7094123,30.245816 11.5661814,32.1147818 C10.7814701,32.2943821 9.99927296,31.8004812 9.82048504,31.0119236 C9.64085906,30.223366 10.1305703,29.4376146 10.9172372,29.2580142 C19.8286974,27.2128156 27.4727189,28.0934184 33.6392259,31.8790564 C34.326442,32.3028009 34.5443397,33.2036087 34.122512,33.8939474 L34.122512,33.8939474 Z M36.9859122,27.4951249 C36.4579291,28.3572064 35.3349175,28.6294131 34.4772943,28.0990309 C28.188988,24.2162966 18.6034415,23.0918302 11.1655848,25.3598455 C10.2009681,25.6525379 9.18215631,25.1064407 8.88939109,24.1391246 C8.59886073,23.1701247 9.14276709,22.1486479 10.1057076,21.8539912 C18.6017653,19.2643791 29.1639409,20.518775 36.3852966,24.976511 C37.2429198,25.5068932 37.5138953,26.6350077 36.9859122,27.4954055 L36.9859122,27.4951249 Z M37.2317456,20.8319531 C29.6919239,16.3332458 17.2521959,15.9196038 10.053468,18.1143758 C8.89749242,18.4665608 7.67503004,17.8110196 7.32471747,16.6497913 C6.97440489,15.4880018 7.62642207,14.2608265 8.78323577,13.9077996 C17.0468692,11.3877826 30.7842064,11.8746679 39.4649184,17.0513664 C40.5069168,17.6712681 40.8477312,19.0202349 40.2303542,20.0633199 C39.6157707,21.107808 38.2692742,21.4521354 37.232863,20.8319531 L37.2317456,20.8319531 Z M63.6476603,21.6940346 C59.6081708,20.7264379 58.8902256,20.0473242 58.8902256,18.6203436 C58.8902256,17.2722187 60.1529152,16.3649564 62.0329819,16.3649564 C63.8543838,16.3649564 65.6590244,17.053892 67.5530589,18.4721733 C67.6089301,18.515109 67.6815627,18.5322272 67.7514017,18.5210021 C67.8240343,18.5103384 67.8854926,18.4713314 67.9273961,18.4126807 L69.8996503,15.6198958 C69.9806635,15.5048393 69.9583151,15.3462859 69.8493662,15.2584501 C67.5949623,13.4419613 65.0584087,12.5588328 62.0916467,12.5588328 C57.7308977,12.5588328 54.6831224,15.1880131 54.6831224,18.9497979 C54.6831224,22.9837894 57.3118635,24.4121732 61.854194,25.5147508 C65.7176892,26.4091042 66.3713825,27.1583743 66.3713825,28.4975192 C66.3713825,29.982028 65.0528216,30.9052859 62.9297151,30.9052859 C60.5719494,30.9052859 58.6471858,30.1055032 56.4961436,28.2365374 C56.443066,28.1888311 56.3704334,28.1691873 56.3033879,28.1719936 C56.2307553,28.1776061 56.1665034,28.2112811 56.1218064,28.2646 L53.909306,30.9080922 C53.8171184,31.0203424 53.8282927,31.1831052 53.934448,31.2785178 C56.4374788,33.5235218 59.5159833,34.7077614 62.8403211,34.7077614 C67.5390911,34.7077614 70.5757182,32.1288131 70.5757182,28.1355123 C70.5840728,24.7660419 68.5755023,22.8998824 63.656041,21.6976827 L63.6476603,21.6940346 Z M81.207986,17.692315 C79.1714799,17.692315 77.5009303,18.4982715 76.1209111,20.1497525 L76.1209111,18.2908892 C76.1209111,18.1441221 76.0035815,18.0245756 75.8583163,18.0245756 L72.2406546,18.0245756 C72.0953894,18.0245756 71.9780598,18.1441221 71.9780598,18.2908892 L71.9780598,38.9452064 C71.9780598,39.0911316 72.0953894,39.2118006 72.2406546,39.2118006 L75.8583163,39.2118006 C76.0035815,39.2118006 76.1209111,39.0911316 76.1209111,38.9452064 L76.1209111,32.4262761 C77.5009303,33.9781351 79.1714799,34.7386302 81.207986,34.7386302 C84.9932614,34.7386302 88.8260335,31.8117063 88.8260335,26.2163145 C88.8316145,20.6198002 84.9988486,17.6920344 81.2107796,17.6920344 L81.207986,17.692315 Z M84.6189242,26.2163145 C84.6189242,29.0643827 82.8729485,31.0540174 80.3699176,31.0540174 C77.897616,31.0540174 76.0315171,28.9745825 76.0315171,26.2163145 C76.0315171,23.4577659 77.897616,21.3788922 80.3699176,21.3788922 C82.8310451,21.3786116 84.6189242,23.4125852 84.6189242,26.2160339 L84.6189242,26.2163145 Z M98.645395,17.692315 C93.7706307,17.692315 89.9518326,21.4627992 89.9518326,26.2772102 C89.9518326,31.0399861 93.7454887,34.769499 98.5867302,34.769499 C103.478256,34.769499 107.308228,31.0119236 107.308228,26.2163145 C107.308228,21.4369817 103.503398,17.6928763 98.645395,17.6928763 L98.645395,17.692315 L98.645395,17.692315 Z M98.645395,31.08208 C96.0529702,31.08208 94.0974774,28.9886138 94.0974774,26.2149114 C94.0974774,23.4285808 95.9859247,21.4066741 98.5867302,21.4066741 C101.195916,21.4066741 103.162583,23.4992984 103.162583,26.2758071 C103.162583,29.0615764 101.262962,31.08208 98.645395,31.08208 L98.645395,31.08208 Z M117.717037,18.0245756 L113.736213,18.0245756 L113.736213,13.9369846 C113.736213,13.7904981 113.618883,13.6709517 113.473618,13.6709517 L109.855956,13.6709517 C109.710691,13.6709517 109.590568,13.7904981 109.590568,13.9369846 L109.590568,18.0245756 L107.852973,18.0245756 C107.707708,18.0245756 107.590378,18.1441221 107.590378,18.2908892 L107.590378,21.4134091 C107.590378,21.5598956 107.707708,21.6797227 107.852973,21.6797227 L109.590568,21.6797227 L109.590568,29.7603339 C109.590568,33.0240084 111.20804,34.6796988 114.40108,34.6796988 C115.697293,34.6796988 116.772814,34.4102984 117.786876,33.8322098 C117.870683,33.7873098 117.920967,33.6975096 117.920967,33.6020969 L117.920967,30.6274667 C117.920967,30.5376665 117.873477,30.4506726 117.795257,30.4029663 C117.717037,30.3524537 117.619263,30.3496474 117.538249,30.3917413 C116.842653,30.7425231 116.169404,30.9052859 115.415143,30.9052859 C114.255815,30.9052859 113.736213,30.3749037 113.736213,29.1906641 L113.736213,21.6811258 L117.717037,21.6811258 C117.862303,21.6811258 117.979632,21.5615794 117.979632,21.4148122 L117.979632,18.292573 C117.985219,18.1458058 117.86789,18.0262594 117.719831,18.0262594 L117.717037,18.0245756 L117.717037,18.0245756 Z M131.584275,18.0405713 L131.584275,17.5385323 C131.584275,16.0616003 132.148574,15.4029722 133.411264,15.4029722 C134.165526,15.4029722 134.771728,15.5533875 135.450564,15.7806942 C135.534371,15.807073 135.620971,15.7938836 135.688017,15.7436516 C135.757856,15.6934196 135.796965,15.6128801 135.796965,15.52757 L135.796965,12.4659458 C135.796965,12.348925 135.724333,12.2453742 135.609797,12.2108572 C134.894645,11.99674 133.978357,11.7770102 132.603925,11.7770102 C129.265619,11.7770102 127.497295,13.6667423 127.497295,17.2399467 L127.497295,18.0088606 L125.7597,18.0088606 C125.614435,18.0088606 125.494312,18.1284071 125.494312,18.2748936 L125.494312,21.4134091 C125.494312,21.5598956 125.614435,21.6797227 125.7597,21.6797227 L127.497295,21.6797227 L127.497295,34.1408979 C127.497295,34.2896294 127.617418,34.4074921 127.762683,34.4074921 L131.377552,34.4074921 C131.52561,34.4074921 131.64294,34.2896294 131.64294,34.1408979 L131.64294,21.6805646 L135.020355,21.6805646 L140.194031,34.1408979 C139.607383,35.4486127 139.029116,35.7095944 138.241331,35.7095944 C137.6044,35.7095944 136.931151,35.5187691 136.246729,35.1399246 C136.182477,35.1062496 136.104257,35.1006371 136.037212,35.1202809 C135.967373,35.1455372 135.908708,35.1960497 135.880772,35.2633999 L134.654399,37.9658234 C134.595734,38.0949111 134.646018,38.2436426 134.768935,38.3109928 C136.048386,39.006944 137.202127,39.304407 138.629636,39.304407 C141.300281,39.304407 142.778075,38.0528173 144.077081,34.6909239 L150.351419,18.4042619 C150.384942,18.3223193 150.373768,18.2297129 150.323484,18.1570309 C150.275993,18.0849101 150.19498,18.0414132 150.108379,18.0414132 L146.342659,18.0414132 C146.228123,18.0414132 146.127555,18.1135339 146.091238,18.219891 L142.23333,29.2860768 L138.009466,18.2125947 C137.970356,18.1096052 137.872581,18.0414132 137.763632,18.0414132 L131.584275,18.0414132 L131.584275,18.0405713 L131.584275,18.0405713 Z M123.544406,18.0245756 L119.926744,18.0245756 C119.781479,18.0245756 119.661356,18.1441221 119.661356,18.2908892 L119.661356,34.1408979 C119.661356,34.2896294 119.781479,34.4074921 119.926744,34.4074921 L123.544406,34.4074921 C123.689671,34.4074921 123.809794,34.2896294 123.809794,34.1408979 L123.809794,18.2920117 C123.809794,18.1452446 123.692465,18.0256981 123.544406,18.0256981 L123.544406,18.0245756 Z M121.756527,10.8071685 C120.32343,10.8071685 119.161308,11.9723255 119.161308,13.4116537 C119.161308,14.8518238 120.32343,16.018384 121.756527,16.018384 C123.189624,16.018384 124.348952,14.8518238 124.348952,13.4116537 C124.348952,11.9726062 123.18683,10.8071685 121.756527,10.8071685 Z M153.441098,23.1210153 C152.010795,23.1210153 150.896164,21.9662413 150.896164,20.5639557 C150.896164,19.1616701 152.024762,17.9937068 153.455066,17.9937068 C154.885369,17.9937068 156,19.1482001 156,20.5493632 C156,21.9516488 154.871401,23.1210153 153.441098,23.1210153 Z M153.455066,18.2479535 C152.150473,18.2479535 151.164346,19.2890741 151.164346,20.5639557 C151.164346,21.8382761 152.144886,22.8653654 153.441098,22.8653654 C154.745691,22.8653654 155.731818,21.8250867 155.731818,20.5493632 C155.731818,19.2750428 154.751278,18.2479535 153.455066,18.2479535 L153.455066,18.2479535 Z M154.019365,20.8123093 L154.740104,21.8248061 L154.131108,21.8248061 L153.483001,20.8959357 L152.927083,20.8959357 L152.927083,21.8248061 L152.418655,21.8248061 L152.418655,19.1409039 L153.608712,19.1409039 C154.231676,19.1409039 154.639536,19.459975 154.639536,19.9970922 C154.642329,20.437113 154.388115,20.7059522 154.022159,20.8123093 L154.019365,20.8123093 Z M153.589157,19.6014103 L152.927083,19.6014103 L152.927083,20.4503024 L153.589157,20.4503024 C153.918797,20.4503024 154.11714,20.2878203 154.11714,20.0254354 C154.11714,19.7492999 153.918797,19.6014103 153.589157,19.6014103 L153.589157,19.6014103 Z" id="Shape"></path>
                    </g>
                </g>
            </g>
        </g>
    </g>
</svg>