<?xml version="1.0" encoding="UTF-8"?>
<svg width="212px" height="32px" viewBox="0 0 212 32" version="1.1" xmlns="http://www.w3.org/2000/svg" xmlns:xlink="http://www.w3.org/1999/xlink">
    <title>YouTubeLogo</title>
    <g id="Homepage" stroke="none" stroke-width="1" fill="none" fill-rule="evenodd">
        <g id="EPK-v.5.2-(matt's-colors)" transform="translate(-1212.000000, -3373.000000)" fill-rule="nonzero">
            <g id="Music-CTA" transform="translate(1.000000, 3018.104169)">
                <g id="Right-Content" transform="translate(1211.000000, 209.500000)">
                    <g id="YouTubeLogo" transform="translate(0.000000, 146.000000)">
                        <g id="Group" transform="translate(144.000000, 1.000000)" fill="#261919">
                            <path d="M11.6702597,10.1295629 C10.8865276,14.077963 10.2926057,18.8902659 9.98033749,20.8796755 L9.75991286,20.8796755 C9.5088737,18.8294277 8.91495177,14.0414601 8.10060522,10.159982 L6.09841481,0.498873366 L0,0.498873366 L0,26.5680487 L3.78395618,26.5680487 L3.78395618,5.07999099 L4.15745347,7.0876521 L8.00263871,26.5680487 L11.7865949,26.5680487 L15.5705511,7.0876521 L15.9746629,5.06782334 L15.9746629,17.9837765 L15.9746629,26.5680487 L19.7586191,26.5680487 L19.7586191,0.498873366 L13.5989752,0.498873366 L11.6702597,10.1295629 Z" id="Path"></path>
                            <path d="M29.9961186,22.6500676 C29.6532359,23.3618747 28.9001184,23.8607481 28.1531238,23.8607481 C27.2775482,23.8607481 26.9346654,23.1793601 26.9346654,21.5002253 L26.9346654,7.51960342 L22.6180164,7.51960342 L22.6180164,21.749662 C22.6180164,25.260027 23.7752457,26.8783236 26.3407435,26.8783236 C28.0918947,26.8783236 29.5001632,26.0995944 30.4675824,24.237945 L30.559426,24.237945 L30.9329233,26.5680487 L34.3127677,26.5680487 L34.3127677,7.51960342 L29.9961186,7.51960342 L29.9961186,22.6500676 Z" id="Path"></path>
                            <path d="M42.6582891,15.0392068 C41.2500207,14.011041 40.374445,13.329653 40.374445,11.8391167 C40.374445,10.7805318 40.8765234,10.1904011 42.0643672,10.1904011 C43.2828256,10.1904011 43.6930603,11.0299685 43.7236749,13.8893646 L47.3484355,13.7311852 C47.6300892,9.10139703 46.0993626,7.1728256 42.1255963,7.1728256 C38.4334837,7.1728256 36.6211034,8.82154123 36.6211034,12.204146 C36.6211034,15.2825597 38.1212155,16.6757548 40.5642551,18.5130689 C42.6582891,20.1313655 43.8767475,21.0317711 43.8767475,22.3337089 C43.8767475,23.3253718 43.2522111,24.0128436 42.1562108,24.0128436 C40.8765234,24.0128436 40.1234059,22.8021631 40.313216,20.6910771 L36.6517179,20.7519153 C36.0884105,24.7003155 37.6864891,27 41.9357862,27 C45.6585133,27 47.5933697,25.2904461 47.5933697,21.8713384 C47.5994746,18.7685895 46.0381335,17.521406 42.6582891,15.0392068 Z" id="Path"></path>
                            <rect id="Rectangle" x="49.9751623" y="7.51960342" width="4.12683894" height="19.0484452"></rect>
                            <path d="M52.0691963,0 C50.4772407,0 49.7241232,0.590130689 49.7241232,2.64037855 C49.7241232,4.75146462 50.4772407,5.2807571 52.0691963,5.2807571 C53.6978895,5.2807571 54.4142695,4.75146462 54.4142695,2.64037855 C54.4142695,0.681388013 53.6978895,0 52.0691963,0 Z" id="Path"></path>
                            <path d="M67.9887531,19.6994142 L64.2047969,19.5108157 C64.2047969,22.8690852 63.8312996,23.9520054 62.5454893,23.9520054 C61.2658018,23.9520054 61.0453772,22.7413249 61.0453772,18.7929247 L61.0453772,15.0939612 C61.0453772,11.2733213 61.2964163,10.0626408 62.5761038,10.0626408 C63.7639476,10.0626408 64.0762159,11.2124831 64.0762159,14.7532672 L67.8295575,14.5038306 C68.0805967,11.5531771 67.7070994,9.53334836 66.5498701,8.38350608 C65.704909,7.54393871 64.4252215,7.14240649 62.6434558,7.14240649 C58.4553878,7.14240649 56.734851,9.38125282 56.734851,15.6536728 L56.734851,18.3244705 C56.734851,24.785489 58.2043486,26.8661559 62.4903831,26.8661559 C64.3027634,26.8661559 65.5518363,26.4950428 66.3967974,25.6858945 C67.6152558,24.578639 68.0805967,22.6500676 67.9887531,19.6994142 Z" id="Path"></path>
                        </g>
                        <g id="Group" transform="translate(47.000000, 1.000000)" fill="#261919">
                            <path d="M15.5835854,27.1032028 C14.7113005,26.5115658 14.0864724,25.5898577 13.7214737,24.3380783 C13.3502887,23.0862989 13.1708826,21.4234875 13.1708826,19.3434164 L13.1708826,16.5097865 C13.1708826,14.411032 13.3812208,12.7233096 13.8018972,11.452847 C14.2225735,10.1823843 14.8783338,9.2544484 15.7753643,8.66903915 C16.6723948,8.08362989 17.8478141,7.79715302 19.3016222,7.79715302 C20.736871,7.79715302 21.8813583,8.09608541 22.7474567,8.68772242 C23.6135551,9.27935943 24.2445697,10.2072954 24.6405004,11.4715302 C25.0426175,12.7357651 25.2405829,14.411032 25.2405829,16.5160142 L25.2405829,19.3496441 C25.2405829,21.4297153 25.0426175,23.0987544 24.6528732,24.3629893 C24.263129,25.6272242 23.6321144,26.5489324 22.7598295,27.1281139 C21.8875447,27.7135231 20.6997525,28 19.2026395,28 C17.6622216,27.9937722 16.4558702,27.6948399 15.5835854,27.1032028 Z M20.4832279,24.0516014 C20.7244982,23.4163701 20.8482266,22.3763345 20.8482266,20.9314947 L20.8482266,14.8532028 C20.8482266,13.4519573 20.7244982,12.430605 20.4832279,11.7829181 C20.2419577,11.1352313 19.8150949,10.8113879 19.2026395,10.8113879 C18.6149299,10.8113879 18.1942535,11.1352313 17.9529832,11.7829181 C17.711713,12.430605 17.5879846,13.4519573 17.5879846,14.8532028 L17.5879846,20.9314947 C17.5879846,22.3763345 17.7055265,23.4101423 17.934424,24.0516014 C18.1633214,24.6868327 18.5839978,25.0044484 19.1964531,25.0044484 C19.8089084,25.0044484 20.2357712,24.6868327 20.4832279,24.0516014 Z" id="Shape"></path>
                            <path d="M82.7000275,19.3870107 L82.7000275,20.3709964 C82.7000275,21.6227758 82.737146,22.5631673 82.811383,23.1859431 C82.88562,23.8087189 83.0402805,24.269573 83.2691779,24.5560498 C83.4980753,24.8425267 83.8568875,24.9857651 84.3456145,24.9857651 C84.9951883,24.9857651 85.4467968,24.730427 85.6880671,24.2197509 C85.9293374,23.7090747 86.0592521,22.8620996 86.0839978,21.6725979 L89.8453396,21.8967972 C89.8638988,22.0649466 89.8762717,22.3016014 89.8762717,22.594306 C89.8762717,24.3941281 89.3875447,25.7455516 88.4039043,26.636121 C87.4264504,27.5266904 86.0406929,27.975089 84.2466318,27.975089 C82.099945,27.975089 80.5904592,27.2962633 79.7305472,25.9386121 C78.8644487,24.5809609 78.4375859,22.4822064 78.4375859,19.6423488 L78.4375859,16.2357651 C78.4375859,13.3087189 78.883008,11.1725979 79.7800385,9.82740214 C80.677069,8.48220641 82.2051141,7.80960854 84.3765466,7.80960854 C85.8736596,7.80960854 87.0181468,8.08362989 87.8223811,8.63790036 C88.6204289,9.19217082 89.1833929,10.0453737 89.511273,11.2161922 C89.8391531,12.3807829 90,13.9937722 90,16.0489324 L90,19.3870107 L82.7000275,19.3870107 Z M83.2506186,11.1788256 C83.0279076,11.452847 82.8794336,11.9074733 82.811383,12.5302491 C82.737146,13.1530249 82.7000275,14.1058719 82.7000275,15.3763345 L82.7000275,16.7775801 L85.8922189,16.7775801 L85.8922189,15.3763345 C85.8922189,14.1245552 85.8489139,13.1779359 85.7684905,12.5302491 C85.6818807,11.8825623 85.5334067,11.4279359 85.3106956,11.1601423 C85.0879846,10.8923488 84.7477316,10.7615658 84.2837503,10.7615658 C83.8135826,10.7677936 83.4733297,10.9048043 83.2506186,11.1788256 Z" id="Shape"></path>
                            <path d="M4.96150674,19.019573 L0,0.983985765 L4.33049216,0.983985765 L6.06887545,9.16103203 C6.5142975,11.1788256 6.8359912,12.8914591 7.04632939,14.3113879 L7.17005774,14.3113879 C7.31853176,13.2962633 7.64641188,11.5836299 8.14751169,9.19217082 L9.94775914,0.983985765 L14.2782513,0.983985765 L9.2548804,19.019573 L9.2548804,27.6699288 L4.95532032,27.6699288 L4.95532032,19.019573 L4.96150674,19.019573 Z" id="Path"></path>
                            <path d="M39.3146824,8.17704626 L39.3146824,27.6761566 L35.89978,27.6761566 L35.5224086,25.2909253 L35.4296123,25.2909253 C34.5016497,27.0907473 33.1097058,27.9937722 31.259967,27.9937722 C29.9731922,27.9937722 29.0266703,27.5702847 28.414215,26.7233096 C27.8017597,25.8763345 27.4986252,24.5498221 27.4986252,22.7437722 L27.4986252,8.17704626 L31.8600495,8.17704626 L31.8600495,22.4946619 C31.8600495,23.366548 31.9528458,23.9830961 32.1446247,24.3567616 C32.3364036,24.730427 32.6519109,24.911032 33.0911465,24.911032 C33.468518,24.911032 33.8335166,24.7927046 34.179956,24.5622776 C34.5263954,24.3318505 34.7862249,24.0329181 34.9532582,23.6717082 L34.9532582,8.17704626 L39.3146824,8.17704626 Z" id="Path"></path>
                            <path d="M61.6847677,8.17704626 L61.6847677,27.6761566 L58.2698653,27.6761566 L57.8924938,25.2909253 L57.7996976,25.2909253 C56.8717349,27.0907473 55.479791,27.9937722 53.6300522,27.9937722 C52.3432774,27.9937722 51.3967556,27.5702847 50.7843002,26.7233096 C50.1718449,25.8763345 49.8687105,24.5498221 49.8687105,22.7437722 L49.8687105,8.17704626 L54.2301347,8.17704626 L54.2301347,22.4946619 C54.2301347,23.366548 54.322931,23.9830961 54.5147099,24.3567616 C54.7064889,24.730427 55.0219962,24.911032 55.4612318,24.911032 C55.8386032,24.911032 56.2036019,24.7927046 56.5500412,24.5622776 C56.8964806,24.3318505 57.1563101,24.0329181 57.3233434,23.6717082 L57.3233434,8.17704626 L61.6847677,8.17704626 Z" id="Path"></path>
                            <polygon id="Path" points="51.1678581 4.51512456 46.837366 4.51512456 46.837366 27.6761566 42.568738 27.6761566 42.568738 4.51512456 38.2382458 4.51512456 38.2382458 0.983985765 51.1678581 0.983985765"></polygon>
                            <path d="M76.1176794,11.2909253 C75.8516635,10.0640569 75.4248007,9.17348754 74.837091,8.61921708 C74.2493814,8.06494662 73.4327743,7.79092527 72.405829,7.79092527 C71.6077811,7.79092527 70.8592246,8.02135231 70.1601595,8.47597865 C69.4672807,8.93060498 68.9290624,9.52846975 68.5455045,10.2758007 L68.5145724,10.2758007 L68.5145724,0 L64.3139951,0 L64.3139951,27.6761566 L67.91449,27.6761566 L68.359912,25.8327402 L68.4527083,25.8327402 C68.7867748,26.4928826 69.294061,27.0097865 69.9683805,27.3896797 C70.6427,27.769573 71.3912565,27.9626335 72.21405,27.9626335 C73.6864174,27.9626335 74.7752268,27.2775801 75.4681056,25.9137011 C76.1609843,24.5435943 76.5136101,22.4074733 76.5136101,19.5053381 L76.5136101,16.4225979 C76.5136101,14.230427 76.3836954,12.5240214 76.1176794,11.2909253 Z M72.1212538,19.2437722 C72.1212538,20.6637011 72.065576,21.7784698 71.9480341,22.5818505 C71.8304922,23.3852313 71.6387132,23.9581851 71.3603244,24.3007117 C71.0881221,24.6432384 70.716937,24.8113879 70.2529557,24.8113879 C69.8941435,24.8113879 69.560077,24.7241993 69.2569425,24.5560498 C68.9538081,24.3879004 68.7063514,24.1325623 68.5145724,23.7900356 L68.5145724,12.7233096 C68.6630465,12.1939502 68.9166896,11.7580071 69.2755018,11.4217082 C69.634314,11.0854093 70.0240583,10.911032 70.4447347,10.911032 C70.8901567,10.911032 71.2304097,11.0854093 71.47168,11.4341637 C71.7129502,11.7829181 71.8799835,12.3745552 71.9789662,13.202847 C72.0717624,14.0311388 72.1212538,15.2081851 72.1212538,16.7339858 L72.1212538,19.2437722 Z" id="Shape"></path>
                        </g>
                        <g id="Group">
                            <path d="M43.0821784,4.8422 C42.5770685,2.9388 41.0863783,1.4384 39.1891362,0.9238 C35.7580848,0 21.9969201,0 21.9969201,0 C21.9969201,0 8.24191516,0 4.81086378,0.9238 C2.9197816,1.4322 1.42909142,2.9326 0.917821644,4.8422 C0,8.2956 0,15.5 0,15.5 C0,15.5 0,22.7044 0.917821644,26.1578 C1.42293154,28.0612 2.91362173,29.5616 4.81086378,30.0762 C8.24191516,31 21.9969201,31 21.9969201,31 C21.9969201,31 35.7580848,31 39.1891362,30.0762 C41.0802184,29.5678 42.5709086,28.0674 43.0821784,26.1578 C44,22.7044 44,15.5 44,15.5 C44,15.5 44,8.2956 43.0821784,4.8422 Z" id="Path" fill="#261919"></path>
                            <polygon id="Path" fill="#A6055D" points="17.598768 22.1402 17.598768 8.8598 29.0314994 15.5"></polygon>
                        </g>
                    </g>
                </g>
            </g>
        </g>
    </g>
</svg>